<svg xmlns="http://www.w3.org/2000/svg" width="11" height="14" viewBox="0 0 11 14">
    <path fill="#0A4D7C" fill-rule="nonzero" d="M9.188 1.75H7C7 .785 6.215 0 5.25 0S3.5.785 3.5 1.75H1.312C.589 1.75 0 2.338 0 3.063v9.624C0 13.412.588 14 1.313 14h7.875c.724 0 1.312-.588 1.312-1.313V3.063c0-.725-.588-1.313-1.313-1.313zm-6.563 9.844a.655.655 0 0 1-.656-.656c0-.364.292-.657.656-.657.364 0 .656.293.656.656a.655.655 0 0 1-.656.657zm0-2.625a.655.655 0 0 1-.656-.656c0-.364.292-.657.656-.657.364 0 .656.293.656.657a.655.655 0 0 1-.656.656zm0-2.625a.655.655 0 0 1-.656-.657c0-.363.292-.656.656-.656.364 0 .656.293.656.657a.655.655 0 0 1-.656.656zm2.625-5.25c.364 0 .656.292.656.656a.655.655 0 0 1-.656.656.655.655 0 0 1-.656-.656c0-.364.292-.656.656-.656zm3.5 10.062a.22.22 0 0 1-.219.219H4.594a.22.22 0 0 1-.219-.219v-.437a.22.22 0 0 1 .219-.219H8.53a.22.22 0 0 1 .219.219v.437zm0-2.625a.22.22 0 0 1-.219.219H4.594a.22.22 0 0 1-.219-.219v-.437a.22.22 0 0 1 .219-.219H8.53a.22.22 0 0 1 .219.219v.437zm0-2.625a.22.22 0 0 1-.219.219H4.594a.22.22 0 0 1-.219-.219V5.47a.22.22 0 0 1 .219-.219H8.53a.22.22 0 0 1 .219.219v.437z"/>
</svg>
