<svg xmlns="http://www.w3.org/2000/svg" width="41" height="56" viewBox="0 0 41 56">
    <g fill="#0A4D7C" fill-rule="evenodd">
        <path fill-opacity=".24" d="M34.2 14.564V3.368H23l11.2 11.196M.672 37.964V49.16h11.196L.672 37.964"/>
        <path d="M24.143 50.113H0V2.696h11.868V4.04H1.344V48.77h22.799v1.344M34.872 39.385h-1.344V4.04H23V2.696h11.872v36.689"/>
        <path d="M8.257 17.562H26.61v-1.344H8.257zM8.257 23.905H26.61v-1.344H8.257zM8.257 30.248H26.61v-1.344H8.257zM8.257 36.59H26.61v-1.344H8.257zM17.633 3.504a4.117 4.117 0 0 1 4.068 3.572l.014.122a.308.308 0 0 0 .614-.04V1.43a.084.084 0 0 0-.086-.086h-9.618a.087.087 0 0 0-.085.086v5.728c0 .17.138.308.309.308h.394a.312.312 0 0 0 .305-.268l.013-.121a4.118 4.118 0 0 1 4.072-3.573zm4.39 5.306a1.657 1.657 0 0 1-1.639-1.438l-.018-.122a2.764 2.764 0 0 0-2.733-2.402 2.766 2.766 0 0 0-2.737 2.402l-.018.12a1.652 1.652 0 0 1-1.635 1.44h-.394c-.91 0-1.653-.741-1.653-1.652V1.43c0-.789.64-1.43 1.429-1.43h9.618c.789 0 1.43.641 1.43 1.43v5.728c0 .91-.74 1.652-1.65 1.652zM31.763 39.678c-4.04 0-7.33 3.287-7.33 7.327s3.29 7.326 7.33 7.326c4.037 0 7.325-3.287 7.325-7.326 0-4.04-3.288-7.327-7.325-7.327zm0 15.997c-4.78 0-8.673-3.89-8.673-8.67 0-4.781 3.893-8.671 8.673-8.671s8.669 3.89 8.669 8.67c0 4.781-3.889 8.67-8.669 8.67z"/>
        <path d="M31.575 50.822l-3.759-3.349a.673.673 0 0 1 .896-1.003l2.71 2.415 4.216-5.156a.671.671 0 1 1 1.04.851l-5.103 6.242"/>
    </g>
</svg>
