<svg xmlns="http://www.w3.org/2000/svg" width="24" height="24" viewBox="0 0 24 24">
    <g fill="none" fill-rule="evenodd">
        <path fill="#B10053" fill-rule="nonzero" d="M24 12c0 6.629-5.373 12-12 12S0 18.629 0 12C0 5.375 5.373 0 12 0s12 5.375 12 12zM12.322 3.968c-2.637 0-4.319 1.11-5.64 3.085a.581.581 0 0 0 .132.786l1.679 1.274a.58.58 0 0 0 .806-.103c.865-1.096 1.457-1.732 2.773-1.732.989 0 2.211.636 2.211 1.595 0 .724-.598 1.096-1.574 1.644-1.138.638-2.644 1.432-2.644 3.418v.194c0 .32.26.58.58.58h2.71c.32 0 .58-.26.58-.58v-.064c0-1.378 4.026-1.435 4.026-5.162 0-2.806-2.912-4.935-5.639-4.935zm-.322 12a2.228 2.228 0 0 0-2.226 2.226c0 1.227.999 2.225 2.226 2.225a2.228 2.228 0 0 0 2.226-2.225A2.228 2.228 0 0 0 12 15.968z"/>
        <path d="M-4-4h32v32H-4z"/>
    </g>
</svg>
