<svg xmlns="http://www.w3.org/2000/svg" width="40" height="44" viewBox="0 0 40 44">
    <g fill="#0A4D7C" fill-rule="evenodd">
        <path fill-opacity=".24" d="M26.253 32.223c10.77 0 13.026-5.172 13.036-9.482.007-2.788-.962-5.49-2.625-7.728L31.449 8H21.058l-5.215 7.013c-1.663 2.237-2.632 4.94-2.626 7.728.01 4.31 2.267 9.482 13.036 9.482"/>
        <path d="M25.414 25.432a4.487 4.487 0 0 1-.879-.154 4.086 4.086 0 0 1-.733-.245l.012-1.355c.424.157.599.212 1.03.31.482.111.819.143 1.146.143.573 0 1.033-.156 1.38-.47a1.54 1.54 0 0 0 .521-1.196c0-.303-.05-.572-.15-.807a1.48 1.48 0 0 0-.411-.569c-.174-.144-.569-.361-1.186-.65l-.865-.403c-.734-.343-1.247-.749-1.538-1.219-.291-.47-.437-1.034-.437-1.695 0-.68.214-1.272.642-1.776.428-.504.862-.717 1.465-.897l.008-1.232h1.401l-.005 1.154c.667.017 1.187.23 1.574.45l.001 1.369c-.196-.142-.494-.279-.895-.41a3.574 3.574 0 0 0-1.116-.2c-.499 0-.891.143-1.178.427-.286.283-.429.648-.429 1.093 0 .274.051.523.154.749.103.225.25.416.44.572.192.157.563.367 1.116.631l.675.316c.764.357 1.321.794 1.674 1.31.352.516.528 1.178.528 1.985 0 .666-.236 1.25-.708 1.75-.472.502-.977.78-1.814.922l-.002 1.246H25.42l-.005-1.149"/>
        <path d="M17.264 30.61c-2.866-1.67-4.386-4.452-4.394-8.042-.007-2.809.962-5.664 2.728-8.04l5.371-7.224h10.916l5.371 7.224c1.767 2.376 2.736 5.231 2.73 8.04-.009 3.22-1.178 5.721-3.475 7.435l-.624-.837c2.02-1.506 3.048-3.727 3.055-6.6.006-2.586-.89-5.22-2.523-7.415l-5.058-6.803h-9.867l-5.058 6.803c-1.633 2.196-2.53 4.83-2.523 7.415.008 3.244 1.312 5.648 3.876 7.142l-.525.901"/>
        <path d="M20.825 6.26a.307.307 0 0 0-.303.304v.445c0 .164.139.303.303.303h10.942c.165 0 .304-.139.304-.303v-.445a.307.307 0 0 0-.304-.303H20.825zm10.942 2.096H20.825a1.348 1.348 0 0 1-1.347-1.347v-.445c0-.742.604-1.347 1.347-1.347h10.942c.743 0 1.347.605 1.347 1.347v.445c0 .743-.604 1.347-1.347 1.347z"/>
        <path d="M21.838 5.341h9.018l2.959-2.867-.878-.879a1.871 1.871 0 0 0-1.332-.552c-.503 0-.976.196-1.332.552l-1.38 1.38-.814-.813a2.452 2.452 0 0 0-3.464 0l-.814.814-1.38-1.38a1.87 1.87 0 0 0-1.332-.553 1.87 1.87 0 0 0-1.332.552l-.878.879 2.959 2.867zm9.441 1.044h-9.864l-4.024-3.9L19.02.857A2.906 2.906 0 0 1 21.09 0c.782 0 1.517.304 2.07.857l.642.643.076-.076a3.47 3.47 0 0 1 2.47-1.023c.933 0 1.81.364 2.47 1.023l.076.076.642-.643A2.907 2.907 0 0 1 31.605 0c.782 0 1.517.304 2.07.857l1.628 1.628-4.024 3.9zM23.76 36.102h-1.82V35.06h1.82a8.125 8.125 0 0 0 4.578-1.406l1.31-.89a1.777 1.777 0 0 0-.563-.51c-.465-.27-1.074-.27-1.632.002-2.655 1.297-5.008.239-5.107.193l-.058-.032a14.625 14.625 0 0 0-2.205-1.143c-2.817-1.155-6.148-.746-8.695 1.067l-.605-.85c2.879-2.05 6.504-2.493 9.696-1.183.776.318 1.56.724 2.331 1.205.25.106 2.098.825 4.185-.194.871-.426 1.85-.413 2.615.034.383.223.697.517.933.871a1.012 1.012 0 0 1-.29 1.39l-1.329.903a9.165 9.165 0 0 1-5.164 1.586"/>
        <path d="M10.981 38.8l-.198-1.024c.17-.033 4.26-.807 11.439-.398a9.92 9.92 0 0 0 5.2-1.145l10.842-5.72c-.378-.427-1.1-.816-2.455-.46-.187.05-.376.126-.52.187l-5.505 2.347-.409-.96 5.505-2.347c.176-.075.41-.17.663-.236 2.094-.552 3.161.333 3.611.91a.956.956 0 0 1 .182.789.948.948 0 0 1-.485.64l-10.943 5.773a10.993 10.993 0 0 1-5.746 1.264c-7.033-.4-11.14.373-11.18.38"/>
        <path d="M11.526 41.747h-4.57v-1.043h3.526v-9.4H6.957v-1.043h4.569v11.486"/>
        <path fill-opacity=".24" d="M0 43.744h7.028V27.478H0z"/>
    </g>
</svg>
