<svg xmlns="http://www.w3.org/2000/svg" width="49" height="48" viewBox="0 0 49 48">
    <g fill="#0A4D7C" fill-rule="evenodd">
        <path d="M18.998 1.284C9.23 1.284 1.285 9.23 1.285 19c0 9.765 7.946 17.716 17.713 17.716 9.77 0 17.717-7.95 17.717-17.716 0-9.77-7.946-17.716-17.717-17.716zm0 36.716C8.52 38 0 29.476 0 19S8.52 0 18.998 0C29.475 0 38 8.524 38 19s-8.525 19-19.002 19z"/>
        <path d="M19.662 42a.661.661 0 1 1 0-1.325c11.586 0 21.013-9.427 21.013-21.013a.661.661 0 1 1 1.325 0C42 31.982 31.977 42 19.662 42"/>
        <path d="M45.776 48a3.19 3.19 0 0 1-2.28-.949l-10.3-10.294a.678.678 0 0 1 0-.953.67.67 0 0 1 .953 0l10.3 10.294a1.868 1.868 0 0 0 2.653 0c.356-.35.55-.822.55-1.326 0-.499-.194-.97-.55-1.326l-10.3-10.294a.676.676 0 0 1 .958-.953l10.296 10.294a3.2 3.2 0 0 1 .944 2.28c0 .862-.333 1.672-.944 2.278a3.197 3.197 0 0 1-2.28.949"/>
        <text font-family="Roboto-Regular, Roboto" font-size="20">
            <tspan x="14.278" y="26">?</tspan>
        </text>
        <path fill-opacity=".24" d="M18.998 38C8.52 38 0 29.476 0 19S8.52 0 18.998 0C29.475 0 38 8.524 38 19s-8.525 19-19.002 19z"/>
    </g>
</svg>
