<svg xmlns="http://www.w3.org/2000/svg" width="40" height="37" viewBox="0 0 40 37">
    <g fill="#0A4D7C" fill-rule="evenodd">
        <path d="M26.86 36.788v-1.481a3.397 3.397 0 0 0 3.392-3.393V4.874c0-1.318.525-2.515 1.378-3.393H13.14a3.395 3.395 0 0 0-3.392 3.393v27.04H8.266V4.874A4.88 4.88 0 0 1 13.14 0h21.987v1.481a3.396 3.396 0 0 0-3.394 3.393v27.04a4.88 4.88 0 0 1-4.874 4.874"/>
        <path d="M31.815 4.133h6.622a3.397 3.397 0 0 0-3.31-2.652 3.397 3.397 0 0 0-3.312 2.652zM40 5.615h-9.748v-.74A4.88 4.88 0 0 1 35.126 0 4.88 4.88 0 0 1 40 4.874v.74zM1.563 32.655a3.4 3.4 0 0 0 3.31 2.652h18.492a4.866 4.866 0 0 1-1.322-2.652H1.563zm25.296 4.133H4.873A4.88 4.88 0 0 1 0 31.914v-.74h23.468v.74a3.396 3.396 0 0 0 3.392 3.393v1.481z"/>
        <path fill-opacity=".24" d="M11.806 10.542h4.444V6.098h-4.444z"/>
        <path d="M18.028 7.58h10.165V6.097H18.028zM18.028 10.542h5.083V9.061h-5.083z"/>
        <path fill-opacity=".24" d="M11.806 16.468h4.444v-4.444h-4.444z"/>
        <path d="M18.028 13.505h10.165v-1.481H18.028zM18.028 16.468h5.083v-1.481h-5.083z"/>
        <path fill-opacity=".24" d="M11.806 22.394h4.444V17.95h-4.444z"/>
        <path d="M18.028 19.431h10.165V17.95H18.028zM18.028 22.394h5.083v-1.481h-5.083z"/>
        <path fill-opacity=".24" d="M11.806 28.32h4.444v-4.444h-4.444z"/>
        <path d="M18.028 25.357h10.165v-1.481H18.028zM18.028 28.32h5.083v-1.481h-5.083z"/>
    </g>
</svg>
