<svg xmlns="http://www.w3.org/2000/svg" width="37" height="41" viewBox="0 0 37 41">
    <g fill="#0A4D7C" fill-rule="evenodd">
        <path stroke="#0A4D7C" stroke-width=".5" d="M19.195 40.705H3.802A2.806 2.806 0 0 1 1 37.903v-34.1A2.806 2.806 0 0 1 3.802 1h24.476a2.806 2.806 0 0 1 2.803 2.803v10.93a.504.504 0 0 1-1.009 0V3.803c0-.99-.805-1.795-1.794-1.795H3.802c-.989 0-1.794.805-1.794 1.795v34.1c0 .989.805 1.794 1.794 1.794h15.393a.504.504 0 0 1 0 1.008"/>
        <path stroke="#0A4D7C" stroke-width=".5" d="M13.163 38.398h5.755V37.39h-5.755zM30.576 6.622H1.504a.504.504 0 1 1 0-1.009h29.072a.504.504 0 0 1 0 1.009M18.918 36.091H1.504a.504.504 0 1 1 0-1.008h17.414a.504.504 0 1 1 0 1.008"/>
        <path fill-opacity=".24" d="M7.566 13.287H5.767c-.599 0-1.085-.486-1.085-1.086v-1.798c0-.6.486-1.085 1.085-1.085h1.799c.599 0 1.085.486 1.085 1.085v1.798c0 .6-.486 1.086-1.085 1.086M13.717 13.287H11.92c-.599 0-1.085-.486-1.085-1.086v-1.798c0-.6.486-1.085 1.085-1.085h1.798c.6 0 1.086.486 1.086 1.085v1.798c0 .6-.486 1.086-1.086 1.086M19.87 13.287H18.07c-.6 0-1.085-.486-1.085-1.086v-1.798c0-.6.486-1.085 1.085-1.085h1.798c.6 0 1.086.486 1.086 1.085v1.798c0 .6-.486 1.086-1.086 1.086M7.566 19.705H5.767c-.599 0-1.085-.486-1.085-1.085v-1.798c0-.6.486-1.086 1.085-1.086h1.799c.599 0 1.085.486 1.085 1.086v1.798c0 .6-.486 1.085-1.085 1.085M13.717 19.705H11.92c-.599 0-1.085-.486-1.085-1.085v-1.798c0-.6.486-1.086 1.085-1.086h1.798c.6 0 1.086.486 1.086 1.086v1.798c0 .6-.486 1.085-1.086 1.085M7.566 26.124H5.767c-.599 0-1.085-.486-1.085-1.086V23.24c0-.6.486-1.085 1.085-1.085h1.799c.599 0 1.085.486 1.085 1.085v1.798c0 .6-.486 1.086-1.085 1.086M13.717 26.124H11.92c-.599 0-1.085-.486-1.085-1.086V23.24c0-.6.486-1.085 1.085-1.085h1.798c.6 0 1.086.486 1.086 1.085v1.798c0 .6-.486 1.086-1.086 1.086"/>
        <path stroke="#0A4D7C" stroke-width=".5" d="M26.663 21.117a.504.504 0 0 1-.504-.504v-3.83c0-.277.225-.503.504-.503h1.499c1.105 0 2.003.898 2.003 2.003a.504.504 0 0 1-1.008 0 .996.996 0 0 0-.995-.995h-.995v3.325a.504.504 0 0 1-.504.504M33.815 34.076h-6.44a.504.504 0 0 1 0-1.008h6.036c.07-.295.183-.724.34-1.213a29.3 29.3 0 0 0 1.392-8.221c.007-.278.25-.511.517-.49a.504.504 0 0 1 .491.516 30.314 30.314 0 0 1-1.44 8.504c-.269.837-.4 1.499-.4 1.505a.504.504 0 0 1-.496.407"/>
        <path stroke="#0A4D7C" stroke-width=".5" d="M24.197 34.076a.505.505 0 0 1-.496-.417c-.005-.026-.49-2.678-2.21-4.6a11.956 11.956 0 0 1-1.333-1.835 10.463 10.463 0 0 1-1.468-5.376 2.284 2.284 0 0 1 2.282-2.28c.937 0 1.793.587 2.13 1.462l.058.154V12.8c0-1.104.9-2.003 2.004-2.003s2.003.899 2.003 2.003v3.983a.504.504 0 0 1-1.008 0V12.8a.996.996 0 0 0-1.99 0v11.1a.504.504 0 0 1-.975.18l-1.034-2.69a1.28 1.28 0 0 0-1.188-.816c-.702 0-1.273.572-1.273 1.273 0 1.73.458 3.41 1.324 4.858.38.634.79 1.2 1.22 1.68 1.917 2.142 2.43 4.98 2.451 5.1a.504.504 0 0 1-.497.59M32.66 23.537a.504.504 0 0 1-.505-.504v-3.63a.996.996 0 0 0-.995-.995h-.995v3.325a.504.504 0 1 1-1.008 0v-3.83c0-.277.226-.503.504-.503h1.5c1.104 0 2.003.898 2.003 2.003v3.63a.504.504 0 0 1-.505.504"/>
        <path stroke="#0A4D7C" stroke-width=".5" d="M35.657 24.152a.504.504 0 0 1-.504-.505v-2.33a.996.996 0 0 0-.995-.995H32.66a.504.504 0 1 1 0-1.008h1.5c1.104 0 2.003.899 2.003 2.003v2.33a.504.504 0 0 1-.505.505M23.524 39.697H34.14V36.09H23.524v3.606zm11.12 1.008H23.02a.504.504 0 0 1-.504-.504v-4.614c0-.278.225-.504.504-.504h11.624c.279 0 .505.226.505.504V40.2a.504.504 0 0 1-.505.504z"/>
        <path stroke="#0A4D7C" stroke-width=".5" d="M32.06 37.824a.07.07 0 0 0-.07.07c0 .077.14.077.14 0a.07.07 0 0 0-.07-.07zm0 1.009a.94.94 0 0 1 0-1.877.94.94 0 0 1 .939.938.94.94 0 0 1-.938.939zM13.163 4.315h5.755V3.307h-5.755z"/>
    </g>
</svg>
