<svg xmlns="http://www.w3.org/2000/svg" width="38" height="40" viewBox="0 0 38 40">
    <g fill="none" fill-rule="evenodd">
        <path fill="#0A4D7C" fill-opacity=".24" d="M8.38 24.269h14.434V.735H8.379z"/>
        <path fill="#FFF" d="M8.38 5.819h14.434V4.348H8.379z"/>
        <path fill="#FFF" d="M14.86 9.43h1.471V.734h-1.47z"/>
        <path fill="#0A4D7C" d="M4.77 31.91c0-.406.33-.736.736-.736H26.42c.826 0 1.601-.32 2.183-.903.584-.579.904-1.355.904-2.182 0-.823-.32-1.597-.904-2.18a3.053 3.053 0 0 0-2.183-.905H4.771v-1.47h21.65a4.53 4.53 0 0 1 3.224 1.335 4.531 4.531 0 0 1 1.334 3.22c0 1.22-.474 2.365-1.335 3.224a4.529 4.529 0 0 1-3.223 1.332H5.506a.735.735 0 0 1-.735-.735z"/>
        <path fill="#0A4D7C" d="M5.34 23.533h20.511l3.443-13.368H1.897l3.444 13.368zm-1.14 1.47L0 8.695h29.673L31.913 0h5.153a.735.735 0 0 1 0 1.47h-4.014l-6.06 23.534H4.2zM6.849 35.55a1.342 1.342 0 1 0-.001 2.686 1.342 1.342 0 0 0 0-2.685zm0 4.157a2.817 2.817 0 0 1-2.814-2.815A2.816 2.816 0 0 1 6.85 34.08a2.816 2.816 0 0 1 2.813 2.812 2.816 2.816 0 0 1-2.813 2.815zM28.168 35.55a1.344 1.344 0 1 0 0 2.686 1.341 1.341 0 1 0 0-2.685zm0 4.157a2.818 2.818 0 0 1-2.816-2.815 2.817 2.817 0 0 1 2.816-2.812 2.815 2.815 0 0 1 2.81 2.812 2.815 2.815 0 0 1-2.81 2.815z"/>
        <path fill="#0A4D7C" d="M4.035 24.269h1.47V9.429h-1.47zM7.644 24.269h1.47V9.429h-1.47zM11.253 24.269h1.47V9.429h-1.47zM14.86 24.269h1.471V9.429h-1.47zM18.47 24.269h1.47V9.429h-1.47zM22.078 24.269h1.47V9.429h-1.47zM25.686 24.269h1.47V9.429h-1.47z"/>
        <path fill="#0A4D7C" d="M4.77 25.004h21.651v-1.47H4.771zM3.815 21.295h23.563v-1.471H3.815zM2.86 17.584h25.472v-1.47H2.86zM1.904 13.875h27.384v-1.47H1.904zM.949 10.165h29.294v-1.47H.95z"/>
    </g>
</svg>
