<svg xmlns="http://www.w3.org/2000/svg" width="46" height="24" viewBox="0 0 46 24">
    <g fill="#0A4D7C" fill-rule="evenodd">
        <path fill-opacity=".24" d="M32.746 23.242l-.757-8.64-5.473-3.462-.53 6.337-1.515-1.044-.95 1.848 1.308 4.96h7.917M12.782 23.242l.757-8.64 5.473-3.462.53 6.337 1.515-1.044.95 1.848-1.308 4.96h-7.917"/>
        <path d="M13.294 23.242H12.27c0-.525.682-7.854.76-8.688a.511.511 0 0 1 .229-.38l5.473-3.58.56.856-5.266 3.445c-.303 3.254-.732 7.994-.732 8.347"/>
        <path d="M19.64 12.42l.35 4.263 2.034-1.77-2.384-2.494zm-.077 5.826a.511.511 0 0 1-.51-.47l-.551-6.712a.512.512 0 0 1 .88-.396l3.752 3.924a.512.512 0 0 1-.034.74l-3.201 2.788a.513.513 0 0 1-.336.126zM20.699 23.753a.512.512 0 0 1-.496-.639l1.308-5.094a.513.513 0 0 1 .991.254l-1.308 5.095a.512.512 0 0 1-.495.384M33.258 23.242h-1.024c0-.353-.43-5.093-.732-8.347l-5.266-3.445.56-.856 5.473 3.58c.13.085.215.225.23.38.077.834.759 8.163.759 8.688"/>
        <path d="M23.504 14.912l2.034 1.771.35-4.264-2.384 2.493zm2.461 3.334a.513.513 0 0 1-.336-.126l-3.201-2.788a.512.512 0 0 1-.034-.74l3.752-3.924a.511.511 0 0 1 .88.396l-.55 6.712a.512.512 0 0 1-.51.47z"/>
        <path d="M22.308 17.635h.911l.604-1.088-1.059-.922-1.059.922.603 1.088zm1.213 1.024h-1.514a.511.511 0 0 1-.448-.264l-.95-1.715a.512.512 0 0 1 .112-.634l1.707-1.486a.512.512 0 0 1 .672 0l1.707 1.486a.512.512 0 0 1 .111.634l-.949 1.715a.511.511 0 0 1-.448.264z"/>
        <path d="M24.829 23.753a.512.512 0 0 1-.495-.384l-1.308-5.095a.512.512 0 1 1 .991-.254l1.308 5.094a.512.512 0 0 1-.496.64M29.442 20.53h-2.926a.511.511 0 1 1 0-1.024h2.926a.512.512 0 1 1 0 1.023M22.764 1.023c-1.913 0-3.47 1.963-3.47 4.376 0 2.413 1.557 4.376 3.47 4.376 1.913 0 3.47-1.963 3.47-4.376 0-2.413-1.557-4.376-3.47-4.376zm0 9.776c-2.477 0-4.493-2.422-4.493-5.4C18.271 2.422 20.287 0 22.764 0c2.477 0 4.493 2.422 4.493 5.4 0 2.977-2.016 5.399-4.493 5.399zM32.18 15.108l-.56-.856 3.678-2.407.56.857-3.678 2.406"/>
        <path d="M38.1 15.423a.51.51 0 0 1-.37-.158l-2.521-2.638a.511.511 0 1 1 .74-.707l2.52 2.637a.512.512 0 0 1-.37.866M44.505 21.508c-.007-.292-.405-3.978-.687-6.532l-3.477-2.274.56-.857 3.68 2.407c.127.083.21.22.228.371.12 1.087.719 6.525.719 6.882h-1.023.511l-.511.003"/>
        <path d="M38.1 20.53a.512.512 0 0 1-.512-.513v-5.106c0-.132.05-.258.142-.354l2.522-2.637a.511.511 0 0 1 .74.707l-2.38 2.49v4.9a.511.511 0 0 1-.512.512M38.1 5.721c-1.194 0-2.164 1.245-2.164 2.774 0 1.53.97 2.773 2.164 2.773 1.193 0 2.164-1.244 2.164-2.773 0-1.53-.97-2.774-2.164-2.774zm0 6.57c-1.758 0-3.188-1.703-3.188-3.796 0-2.094 1.43-3.797 3.188-3.797 1.757 0 3.188 1.703 3.188 3.797 0 2.093-1.43 3.797-3.188 3.797zM13.348 15.108L9.67 12.702l.56-.857 3.679 2.407-.56.856"/>
        <path d="M7.428 15.423a.51.51 0 0 1-.37-.866L9.58 11.92a.512.512 0 0 1 .74.707l-2.522 2.638a.51.51 0 0 1-.37.158M1.023 21.508L0 21.505c0-.357.6-5.795.72-6.882a.511.511 0 0 1 .228-.371l3.678-2.407.56.857-3.476 2.274c-.282 2.554-.68 6.24-.687 6.532"/>
        <path d="M7.428 20.53a.511.511 0 0 1-.511-.513v-4.9l-2.38-2.49a.511.511 0 0 1 .74-.707l2.521 2.637a.513.513 0 0 1 .142.354v5.106c0 .283-.23.512-.512.512M7.428 5.721c-1.193 0-2.164 1.245-2.164 2.774 0 1.53.97 2.773 2.164 2.773 1.194 0 2.164-1.244 2.164-2.773 0-1.53-.97-2.774-2.164-2.774zm0 6.57c-1.757 0-3.187-1.703-3.187-3.796 0-2.094 1.43-3.797 3.187-3.797 1.758 0 3.188 1.703 3.188 3.797 0 2.093-1.43 3.797-3.188 3.797z"/>
    </g>
</svg>
