<svg xmlns="http://www.w3.org/2000/svg" width="56" height="32" viewBox="0 0 56 32">
    <g fill="#0A4D7C" fill-rule="evenodd">
        <path d="M27.93 12.112c.876 0 1.718.544 2.505 1.62.19.278 4.274 6.166 9.81 2.915l-2.518-5.887-7.204-1.705c-1.225-.25-2.01-.313-2.84.052l-2.888 1.271a3.381 3.381 0 0 0-1.888 2.153l-.764 2.622c-.071.245.035.508.247.612.533.262 1.02.312 1.448.15.603-.228 1.13-.88 1.565-1.94l.022-.047c.087-.173.897-1.693 2.33-1.81.059-.004.117-.006.174-.006zm8.998 6.844c-4.502 0-7.54-4.403-7.579-4.461-.361-.494-.926-1.101-1.483-1.054-.578.045-1.095.783-1.248 1.068-.58 1.396-1.357 2.287-2.31 2.648-.774.293-1.639.223-2.502-.2a1.836 1.836 0 0 1-.937-2.175l.764-2.622a4.702 4.702 0 0 1 2.628-2.997l2.888-1.27c1.265-.557 2.406-.39 3.66-.134l7.874 1.865 3.22 7.526-.456.307c-1.614 1.084-3.136 1.5-4.519 1.5z"/>
        <path d="M36.21 19.047l1.787 2.49 3.802-1.208-.969-2.267c-1.625 1.062-3.359 1.142-4.62.985zm1.27 4.047l-4.743-6.61 2.15.89c.131.054 3.292 1.306 5.786-.853l.687-.595 2.235 5.225-6.114 1.943z"/>
        <path fill-opacity=".238" d="M0 0v22.508l4.402 1.744 7.89-19.269L0 0"/>
        <path d="M12.735 21.23l-6.1-2.373.482-1.237 4.902 1.907 4.469-10.444-5.006-2.109.515-1.223 6.236 2.627-5.498 12.852"/>
        <path fill-opacity=".238" d="M55.647 1.327v22.508l-4.402 1.744-7.89-19.268 12.292-4.984"/>
        <path d="M42.66 22.556L37.16 9.704l6.236-2.626.515 1.223-5.005 2.109 4.468 10.444 4.902-1.907.481 1.237-6.099 2.372M36.988 26.559a2.38 2.38 0 0 1-1.74-.756l-5.87-6.227a.664.664 0 0 1 .967-.91l5.868 6.227c.264.28.629.394 1.005.314.375-.079.663-.332.79-.694a.855.855 0 0 0-.138-.821l-4.275-5.361a.663.663 0 1 1 1.038-.828l4.275 5.361c.472.593.604 1.374.353 2.09a2.385 2.385 0 0 1-1.768 1.552 2.43 2.43 0 0 1-.505.053"/>
        <path d="M33.998 28.526a3.21 3.21 0 0 1-2.331-1.002l-4.94-5.167a.664.664 0 0 1 .96-.917l4.94 5.167c.47.492 1.148.694 1.815.54a1.838 1.838 0 0 0 1.355-1.234l.022-.073a.664.664 0 0 1 1.272.38l-.031.098a3.154 3.154 0 0 1-2.32 2.123 3.297 3.297 0 0 1-.742.085"/>
        <path d="M30.977 30.645c-.06 0-.118-.002-.176-.005-.826-.045-1.612-.438-2.214-1.106l-4.085-4.537a.664.664 0 0 1 .987-.888l4.084 4.536c.36.4.835.644 1.3.67.763.04 1.422-.389 1.965-1.279a.664.664 0 0 1 1.133.692c-.952 1.56-2.123 1.917-2.994 1.917M25.326 10.268c-3.527-.808-7.919-.456-7.963-.453l-.11-1.322c.189-.016 4.643-.373 8.37.481l-.297 1.294"/>
        <path d="M28.086 31.588a2.35 2.35 0 0 1-1.63-.657l-1.915-1.838c-6.036-5.913-11.655-9.825-11.712-9.863l.756-1.092c.057.04 5.764 4.011 11.88 10.003l1.91 1.833c.281.27.674.356 1.05.23a.935.935 0 0 0 .646-.747l1.321.137-.01.07a2.245 2.245 0 0 1-1.534 1.798c-.25.084-.507.126-.762.126"/>
        <path d="M16.65 24.212c-.47 0-.941-.157-1.333-.478a1.942 1.942 0 0 1-.712-1.363 1.941 1.941 0 0 1 .493-1.458l.503-.563.99.885-.504.563a.626.626 0 0 0-.159.47c.014.173.095.33.23.44a.774.774 0 0 0 1.071-.087l.492-.555.994.88-.492.555c-.416.47-.993.711-1.574.711"/>
        <path d="M18.642 27.514a2.264 2.264 0 0 1-1.487-.559 2.255 2.255 0 0 1-.78-1.556 2.259 2.259 0 0 1 .55-1.652l1.028-1.185 1.002.87-1.028 1.185a.939.939 0 0 0-.229.687.939.939 0 0 0 .325.648.94.94 0 0 0 1.315-.076l1.104-1.204.978.897-1.104 1.203c-.45.492-1.06.742-1.674.742"/>
        <path d="M21.28 28.897c-.552 0-1.105-.2-1.54-.604a2.266 2.266 0 0 1-.125-3.183l.714-.778.979.897-.714.779a.936.936 0 0 0 .051 1.314c.375.349.965.329 1.316-.043l.746-.792.966.91-.746.792a2.256 2.256 0 0 1-1.647.708"/>
        <path d="M24.29 30.504c-.54 0-1.081-.199-1.5-.598a2.179 2.179 0 0 1-.081-3.062l.283-.3.966.91-.283.3a.848.848 0 0 0 .032 1.192.85.85 0 0 0 1.19-.02l.392-.403.949.928-.393.402a2.168 2.168 0 0 1-1.555.651"/>
    </g>
</svg>
