<svg xmlns="http://www.w3.org/2000/svg" width="14" height="10" viewBox="0 0 14 10">
    <path fill="#0A4D7C" fill-rule="nonzero" d="M4.2 4.9a2.449 2.449 0 0 0 2.45-2.45A2.449 2.449 0 0 0 4.2 0a2.449 2.449 0 0 0-2.45 2.45A2.449 2.449 0 0 0 4.2 4.9zm1.68.7h-.182c-.455.219-.96.35-1.498.35a3.453 3.453 0 0 1-1.498-.35H2.52A2.52 2.52 0 0 0 0 8.12v.63C0 9.33.47 9.8 1.05 9.8h6.3c.58 0 1.05-.47 1.05-1.05v-.63A2.52 2.52 0 0 0 5.88 5.6zm4.62-.7a2.1 2.1 0 1 0-.001-4.201A2.1 2.1 0 0 0 10.5 4.9zm1.05.7h-.083a2.947 2.947 0 0 1-.967.175c-.341 0-.663-.07-.967-.175H9.45c-.446 0-.857.13-1.218.337.533.575.868 1.339.868 2.183v.84c0 .048-.01.094-.013.14h3.863c.58 0 1.05-.47 1.05-1.05a2.449 2.449 0 0 0-2.45-2.45z"/>
</svg>
